<svg xmlns="http://www.w3.org/2000/svg" xmlns:xlink="http://www.w3.org/1999/xlink" width="1920" zoomAndPan="magnify" viewBox="0 0 1440 809.999993" height="1080" preserveAspectRatio="xMidYMid meet" version="1.0"><defs><clipPath id="0da03eac6c"><path d="M 473 325 L 494 325 L 494 346 L 473 346 Z M 473 325 " clip-rule="nonzero"/></clipPath><clipPath id="493f357477"><path d="M 472.417969 326.140625 L 492.550781 324.605469 L 494.082031 344.738281 L 473.953125 346.269531 Z M 472.417969 326.140625 " clip-rule="nonzero"/></clipPath><clipPath id="c03f919c1f"><path d="M 482.484375 325.375 L 486.210938 331.992188 L 493.316406 334.671875 L 486.699219 338.398438 L 484.019531 345.503906 L 480.292969 338.886719 L 473.1875 336.207031 L 479.804688 332.480469 Z M 482.484375 325.375 " clip-rule="nonzero"/></clipPath><clipPath id="d010dd98b0"><path d="M 1304 60 L 1325 60 L 1325 81 L 1304 81 Z M 1304 60 " clip-rule="nonzero"/></clipPath><clipPath id="a0a677f055"><path d="M 1303.714844 60.867188 L 1323.847656 59.335938 L 1325.382812 79.464844 L 1305.25 81 Z M 1303.714844 60.867188 " clip-rule="nonzero"/></clipPath><clipPath id="e89fa97d65"><path d="M 1313.78125 60.101562 L 1317.507812 66.71875 L 1324.613281 69.398438 L 1317.996094 73.125 L 1315.316406 80.234375 L 1311.589844 73.613281 L 1304.484375 70.933594 L 1311.101562 67.207031 Z M 1313.78125 60.101562 " clip-rule="nonzero"/></clipPath><clipPath id="b5c199a7a4"><path d="M 1133 581 L 1154 581 L 1154 602 L 1133 602 Z M 1133 581 " clip-rule="nonzero"/></clipPath><clipPath id="b3f7e73379"><path d="M 1132.878906 582.105469 L 1153.011719 580.570312 L 1154.542969 600.703125 L 1134.414062 602.238281 Z M 1132.878906 582.105469 " clip-rule="nonzero"/></clipPath><clipPath id="ffdeff4dd8"><path d="M 1142.945312 581.339844 L 1146.671875 587.957031 L 1153.777344 590.636719 L 1147.160156 594.363281 L 1144.480469 601.46875 L 1140.753906 594.851562 L 1133.644531 592.171875 L 1140.265625 588.445312 Z M 1142.945312 581.339844 " clip-rule="nonzero"/></clipPath><clipPath id="4abf141841"><path d="M 132 745 L 153 745 L 153 767 L 132 767 Z M 132 745 " clip-rule="nonzero"/></clipPath><clipPath id="1d3aa7fa9e"><path d="M 131.878906 746.765625 L 152.011719 745.230469 L 153.546875 765.359375 L 133.414062 766.894531 Z M 131.878906 746.765625 " clip-rule="nonzero"/></clipPath><clipPath id="e5c958e2ad"><path d="M 141.945312 745.996094 L 145.671875 752.617188 L 152.777344 755.296875 L 146.160156 759.019531 L 143.480469 766.128906 L 139.753906 759.507812 L 132.648438 756.828125 L 139.265625 753.105469 Z M 141.945312 745.996094 " clip-rule="nonzero"/></clipPath><clipPath id="b8828387aa"><path d="M 852 245 L 869 245 L 869 262 L 852 262 Z M 852 245 " clip-rule="nonzero"/></clipPath><clipPath id="416505704a"><path d="M 858.621094 267.769531 L 846.574219 251.570312 L 862.773438 239.523438 L 874.820312 255.722656 Z M 858.621094 267.769531 " clip-rule="nonzero"/></clipPath><clipPath id="e1ea7f0c46"><path d="M 852.597656 259.667969 L 856.203125 252.984375 L 854.671875 245.546875 L 861.359375 249.152344 L 868.796875 247.621094 L 865.191406 254.304688 L 866.722656 261.746094 L 860.035156 258.140625 Z M 852.597656 259.667969 " clip-rule="nonzero"/></clipPath><clipPath id="361791f053"><path d="M 656 569 L 673 569 L 673 586 L 656 586 Z M 656 569 " clip-rule="nonzero"/></clipPath><clipPath id="a51ff39371"><path d="M 662.476562 591.394531 L 650.429688 575.191406 L 666.628906 563.144531 L 678.679688 579.34375 Z M 662.476562 591.394531 " clip-rule="nonzero"/></clipPath><clipPath id="c290fa6752"><path d="M 656.453125 583.292969 L 660.058594 576.609375 L 658.53125 569.167969 L 665.214844 572.773438 L 672.65625 571.246094 L 669.050781 577.929688 L 670.578125 585.367188 L 663.894531 581.761719 Z M 656.453125 583.292969 " clip-rule="nonzero"/></clipPath><clipPath id="bf51f59c71"><path d="M 1133 268 L 1154 268 L 1154 289 L 1133 289 Z M 1133 268 " clip-rule="nonzero"/></clipPath><clipPath id="ab6dce8f9d"><path d="M 1132.878906 269.316406 L 1153.011719 267.78125 L 1154.542969 287.910156 L 1134.414062 289.445312 Z M 1132.878906 269.316406 " clip-rule="nonzero"/></clipPath><clipPath id="57c13257af"><path d="M 1142.945312 268.546875 L 1146.671875 275.167969 L 1153.777344 277.847656 L 1147.160156 281.574219 L 1144.480469 288.679688 L 1140.753906 282.058594 L 1133.644531 279.378906 L 1140.265625 275.65625 Z M 1142.945312 268.546875 " clip-rule="nonzero"/></clipPath><clipPath id="6c8d62b48a"><path d="M 177 92 L 199 92 L 199 114 L 177 114 Z M 177 92 " clip-rule="nonzero"/></clipPath><clipPath id="078d816229"><path d="M 177.175781 93.746094 L 197.308594 92.214844 L 198.839844 112.34375 L 178.710938 113.878906 Z M 177.175781 93.746094 " clip-rule="nonzero"/></clipPath><clipPath id="743ed5c2be"><path d="M 187.242188 92.980469 L 190.96875 99.597656 L 198.074219 102.28125 L 191.457031 106.003906 L 188.777344 113.113281 L 185.050781 106.492188 L 177.941406 103.8125 L 184.5625 100.085938 Z M 187.242188 92.980469 " clip-rule="nonzero"/></clipPath><clipPath id="69e7048386"><path d="M 188 413 L 209 413 L 209 434 L 188 434 Z M 188 413 " clip-rule="nonzero"/></clipPath><clipPath id="fe02ae83bb"><path d="M 188.007812 413.980469 L 208.140625 412.445312 L 209.671875 432.578125 L 189.542969 434.109375 Z M 188.007812 413.980469 " clip-rule="nonzero"/></clipPath><clipPath id="b40cd069b9"><path d="M 198.074219 413.210938 L 201.800781 419.832031 L 208.90625 422.511719 L 202.289062 426.238281 L 199.609375 433.34375 L 195.882812 426.726562 L 188.777344 424.042969 L 195.394531 420.320312 Z M 198.074219 413.210938 " clip-rule="nonzero"/></clipPath><clipPath id="a3f9beba74"><path d="M 304 635 L 325 635 L 325 656 L 304 656 Z M 304 635 " clip-rule="nonzero"/></clipPath><clipPath id="21bde2686b"><path d="M 303.972656 636.246094 L 324.105469 634.710938 L 325.640625 654.84375 L 305.507812 656.375 Z M 303.972656 636.246094 " clip-rule="nonzero"/></clipPath><clipPath id="b8560ff802"><path d="M 314.039062 635.480469 L 317.765625 642.097656 L 324.871094 644.777344 L 318.253906 648.503906 L 315.574219 655.609375 L 311.847656 648.992188 L 304.742188 646.3125 L 311.359375 642.585938 Z M 314.039062 635.480469 " clip-rule="nonzero"/></clipPath><clipPath id="0149ac2f4e"><path d="M 615 119 L 633 119 L 633 137 L 615 137 Z M 615 119 " clip-rule="nonzero"/></clipPath><clipPath id="298e4eb759"><path d="M 621.910156 142.117188 L 609.863281 125.914062 L 626.0625 113.867188 L 638.113281 130.066406 Z M 621.910156 142.117188 " clip-rule="nonzero"/></clipPath><clipPath id="ee83cf76eb"><path d="M 615.886719 134.015625 L 619.492188 127.332031 L 617.964844 119.890625 L 624.648438 123.496094 L 632.089844 121.96875 L 628.480469 128.652344 L 630.011719 136.09375 L 623.328125 132.484375 Z M 615.886719 134.015625 " clip-rule="nonzero"/></clipPath></defs><rect x="-144" width="1728" fill="#ffffff" y="-80.999999" height="971.999992" fill-opacity="1"/><rect x="-144" width="1728" fill="#121212" y="-80.999999" height="971.999992" fill-opacity="1"/><g clip-path="url(#0da03eac6c)"><g clip-path="url(#493f357477)"><g clip-path="url(#c03f919c1f)"><path fill="#ffffff" d="M 472.417969 326.140625 L 492.550781 324.605469 L 494.082031 344.738281 L 473.953125 346.269531 Z M 472.417969 326.140625 " fill-opacity="1" fill-rule="nonzero"/></g></g></g><g clip-path="url(#d010dd98b0)"><g clip-path="url(#a0a677f055)"><g clip-path="url(#e89fa97d65)"><path fill="#ffffff" d="M 1303.714844 60.867188 L 1323.847656 59.335938 L 1325.382812 79.464844 L 1305.25 81 Z M 1303.714844 60.867188 " fill-opacity="1" fill-rule="nonzero"/></g></g></g><g clip-path="url(#b5c199a7a4)"><g clip-path="url(#b3f7e73379)"><g clip-path="url(#ffdeff4dd8)"><path fill="#ffffff" d="M 1132.878906 582.105469 L 1153.011719 580.570312 L 1154.542969 600.703125 L 1134.414062 602.238281 Z M 1132.878906 582.105469 " fill-opacity="1" fill-rule="nonzero"/></g></g></g><g clip-path="url(#4abf141841)"><g clip-path="url(#1d3aa7fa9e)"><g clip-path="url(#e5c958e2ad)"><path fill="#ffffff" d="M 131.878906 746.765625 L 152.011719 745.230469 L 153.546875 765.359375 L 133.414062 766.894531 Z M 131.878906 746.765625 " fill-opacity="1" fill-rule="nonzero"/></g></g></g><g clip-path="url(#b8828387aa)"><g clip-path="url(#416505704a)"><g clip-path="url(#e1ea7f0c46)"><path fill="#ffffff" d="M 858.621094 267.769531 L 846.574219 251.570312 L 862.773438 239.523438 L 874.820312 255.722656 Z M 858.621094 267.769531 " fill-opacity="1" fill-rule="nonzero"/></g></g></g><g clip-path="url(#361791f053)"><g clip-path="url(#a51ff39371)"><g clip-path="url(#c290fa6752)"><path fill="#ffffff" d="M 662.476562 591.394531 L 650.429688 575.191406 L 666.628906 563.144531 L 678.679688 579.34375 Z M 662.476562 591.394531 " fill-opacity="1" fill-rule="nonzero"/></g></g></g><g clip-path="url(#bf51f59c71)"><g clip-path="url(#ab6dce8f9d)"><g clip-path="url(#57c13257af)"><path fill="#ffffff" d="M 1132.878906 269.316406 L 1153.011719 267.78125 L 1154.542969 287.910156 L 1134.414062 289.445312 Z M 1132.878906 269.316406 " fill-opacity="1" fill-rule="nonzero"/></g></g></g><g clip-path="url(#6c8d62b48a)"><g clip-path="url(#078d816229)"><g clip-path="url(#743ed5c2be)"><path fill="#ffffff" d="M 177.175781 93.746094 L 197.308594 92.214844 L 198.839844 112.34375 L 178.710938 113.878906 Z M 177.175781 93.746094 " fill-opacity="1" fill-rule="nonzero"/></g></g></g><g clip-path="url(#69e7048386)"><g clip-path="url(#fe02ae83bb)"><g clip-path="url(#b40cd069b9)"><path fill="#ffffff" d="M 188.007812 413.980469 L 208.140625 412.445312 L 209.671875 432.578125 L 189.542969 434.109375 Z M 188.007812 413.980469 " fill-opacity="1" fill-rule="nonzero"/></g></g></g><g clip-path="url(#a3f9beba74)"><g clip-path="url(#21bde2686b)"><g clip-path="url(#b8560ff802)"><path fill="#ffffff" d="M 303.972656 636.246094 L 324.105469 634.710938 L 325.640625 654.84375 L 305.507812 656.375 Z M 303.972656 636.246094 " fill-opacity="1" fill-rule="nonzero"/></g></g></g><g clip-path="url(#0149ac2f4e)"><g clip-path="url(#298e4eb759)"><g clip-path="url(#ee83cf76eb)"><path fill="#ffffff" d="M 621.910156 142.117188 L 609.863281 125.914062 L 626.0625 113.867188 L 638.113281 130.066406 Z M 621.910156 142.117188 " fill-opacity="1" fill-rule="nonzero"/></g></g></g></svg>